#N canvas 47 947 1049 396 10;
#X obj 24 247 tgl 30 0 empty empty empty 17 7 0 10 -262144 -1 -1 0
1;
#X obj 24 291 moses 1;
#X msg 24 319 0;
#X obj 130 291 s puls;
#X obj 24 157 key;
#X floatatom 24 188 5 0 0 0 - - -, f 5;
#X obj 24 347 s zer;
#X obj 77 291 s ontog;
#X obj 77 260 metro;
#X obj 104 233 /;
#X msg 104 206 15000;
#X obj 119 74 vsl 15 91 30 1000 1 1 empty empty empty 0 -9 0 10 -99865
-258113 -1 4026 1;
#X obj 26 38 loadbang;
#X msg 86 55 144;
#X obj 117 260 s time;
#X floatatom 152 196 5 0 0 0 - - -, f 5;
#X obj 119 179 int;
#X obj 24 214 sel 96;
#X obj 119 18 r ontog;
#X obj 119 46 bng 15 250 50 0 empty empty empty 17 7 0 10 -262144 -1
-1;
#X obj 236 24 seqvar one;
#X obj 431 24 seqvar two;
#X obj 626 24 seqvar three;
#X obj 821 24 seqvar four;
#N canvas 208 316 251 371 tempo 0;
#X obj 19 23 inlet;
#X obj 19 158 outlet;
#X obj 19 104 int;
#X obj 19 131 + 30;
#X obj 19 50 / 2;
#X obj 19 77 pow 1.657;
#X connect 0 0 4 0;
#X connect 2 0 3 0;
#X connect 3 0 1 0;
#X connect 4 0 5 0;
#X connect 5 0 2 0;
#X restore 144 56 pd tempo;
#X connect 0 0 1 0;
#X connect 0 0 7 0;
#X connect 0 0 8 0;
#X connect 1 0 2 0;
#X connect 2 0 6 0;
#X connect 4 0 5 0;
#X connect 5 0 17 0;
#X connect 8 0 3 0;
#X connect 9 0 8 1;
#X connect 9 0 14 0;
#X connect 10 0 9 0;
#X connect 11 0 16 0;
#X connect 12 0 13 0;
#X connect 13 0 11 0;
#X connect 16 0 10 0;
#X connect 16 0 15 0;
#X connect 16 0 9 1;
#X connect 17 0 0 0;
#X connect 18 0 19 0;
#X connect 19 0 11 0;
#X connect 24 0 11 0;
#X coords 0 0 1 1 85 60 0;
