#N canvas 453 440 878 764 10;
#X obj 97 523 mtof;
#X floatatom 97 491 5 0 0 0 - - -, f 5;
#X obj 85 679 dac~;
#X obj 97 550 osc~ 523.25;
#X obj 174 572 *~;
#X floatatom 284 383 5 0 0 0 - - -, f 5;
#X obj 97 621 *~;
#X obj 284 345 int;
#X obj 284 180 vsl 15 128 0 3000 0 0 empty empty empty 0 -9 0 10 -262144
-1 -1 1096 1;
#X obj 97 131 loadbang;
#X msg 97 447 72;
#X obj 174 196 vsl 15 128 0 0.1 0 0 empty empty empty 0 -9 0 10 -262144
-1 -1 6500 1;
#X floatatom 174 530 5 0 0 0 - - -, f 5;
#X obj 286 555 pow~ 3;
#X msg 138 177 0.1;
#X msg 248 161 500;
#X msg 322 477 1, f 1;
#X obj 240 397 f;
#X obj 240 423 moses 3000;
#X obj 240 307 bng 15 250 50 0 empty \$1-banga empty 17 7 0 10 -262144
-1 -1;
#X obj 366 152 vsl 15 128 0.1 1125 0 0 empty empty empty 0 -9 0 10
-262144 -1 -1 2400 1;
#X obj 240 503 vline~;
#X obj 351 503 line~;
#X msg 351 364 0 \, 1 \$1;
#X obj 351 332 f;
#X obj 286 530 *~;
#X msg 240 475 1 \, 0 \$1 \$2;
#X obj 16 474 inlet;
#X obj 174 367 clip 0 0.1;
#X floatatom 284 76 5 0 127 0 - - -, f 5;
#X floatatom 284 154 5 0 3000 0 - - -, f 5;
#X obj 284 127 int;
#X obj 284 100 * 23.625;
#X floatatom 366 48 5 0 127 0 - - -, f 5;
#X obj 366 99 int;
#X obj 174 86 inlet;
#X obj 174 113 / 1270;
#X obj 284 49 inlet;
#X obj 366 21 inlet;
#X obj 455 340 r \$1-time_mult;
#X floatatom 455 367 5 0 0 0 - - -, f 5;
#X obj 567 381 /;
#X obj 240 448 pack f f;
#X obj 581 279 pow;
#X floatatom 581 306 5 0 0 0 - - -, f 5;
#X floatatom 581 56 5 0 127 0 - - -, f 5;
#X obj 581 158 vradio 15 1 0 4 empty empty empty 0 -8 0 10 -262144
-1 -1 0;
#X obj 581 107 int;
#X floatatom 581 134 5 0 0 0 - - -, f 5;
#X obj 581 80 / 31.8;
#X obj 581 225 t b f;
#X msg 581 252 2, f 1;
#X floatatom 567 408 5 0 0 0 - - -, f 5;
#X obj 16 501 s \$1-banga;
#X obj 525 534 bng 15 100 10 0 empty empty empty 17 7 0 10 -262144
-1 -1;
#X obj 581 549 spigot;
#X obj 614 381 - 1;
#X obj 654 408 bng 15 250 50 0 empty \$1-banga empty 17 7 0 10 -262144
-1 -1;
#X obj 654 433 delay;
#X obj 681 406 r \$1-time_mult;
#X obj 525 507 metro;
#X obj 581 576 bng 15 250 10 0 \$1-retrig empty empty 17 7 0 10 -262144
-1 -1;
#X obj 425 490 r ontog;
#X obj 481 490 r zer;
#X obj 614 504 *;
#X obj 629 408 bng 15 250 50 0 empty \$1-banga empty 17 7 0 10 -262144
-1 -1;
#X obj 629 450 tgl 15 0 empty empty empty 17 7 0 10 -262144 -1 -1 0
1;
#X obj 629 477 t b f;
#X obj 581 29 inlet;
#X obj 240 326 bng 15 250 50 0 empty \$1-retrig empty 17 7 0 10 -262144
-1 -1;
#X obj 555 340 t b f;
#X obj 552 446 f;
#X obj 499 408 r \$1-puls;
#X floatatom 414 312 5 0 0 0 - - -, f 5;
#X obj 366 72 pow 1.45;
#X obj 366 124 + 1;
#X connect 0 0 3 0;
#X connect 1 0 0 0;
#X connect 3 0 6 0;
#X connect 4 0 6 1;
#X connect 5 0 17 1;
#X connect 6 0 2 0;
#X connect 6 0 2 1;
#X connect 7 0 5 0;
#X connect 8 0 7 0;
#X connect 9 0 10 0;
#X connect 9 0 14 0;
#X connect 9 0 15 0;
#X connect 10 0 1 0;
#X connect 11 0 28 0;
#X connect 12 0 4 0;
#X connect 13 0 4 1;
#X connect 14 0 11 0;
#X connect 15 0 8 0;
#X connect 16 0 21 0;
#X connect 17 0 18 0;
#X connect 18 0 42 0;
#X connect 18 1 16 0;
#X connect 19 0 17 0;
#X connect 19 0 24 0;
#X connect 20 0 24 1;
#X connect 20 0 42 1;
#X connect 20 0 73 0;
#X connect 21 0 25 0;
#X connect 22 0 25 1;
#X connect 23 0 22 0;
#X connect 24 0 23 0;
#X connect 25 0 13 0;
#X connect 26 0 21 0;
#X connect 27 0 1 0;
#X connect 27 0 53 0;
#X connect 28 0 12 0;
#X connect 29 0 32 0;
#X connect 30 0 8 0;
#X connect 31 0 30 0;
#X connect 32 0 31 0;
#X connect 33 0 74 0;
#X connect 34 0 75 0;
#X connect 35 0 36 0;
#X connect 36 0 11 0;
#X connect 37 0 29 0;
#X connect 38 0 33 0;
#X connect 39 0 40 0;
#X connect 40 0 41 0;
#X connect 41 0 52 0;
#X connect 42 0 26 0;
#X connect 43 0 44 0;
#X connect 44 0 56 0;
#X connect 44 0 70 0;
#X connect 45 0 49 0;
#X connect 46 0 50 0;
#X connect 47 0 48 0;
#X connect 48 0 46 0;
#X connect 49 0 47 0;
#X connect 50 0 51 0;
#X connect 50 1 43 1;
#X connect 51 0 43 0;
#X connect 52 0 71 1;
#X connect 54 0 55 0;
#X connect 55 0 61 0;
#X connect 56 0 64 0;
#X connect 57 0 58 0;
#X connect 58 0 66 0;
#X connect 59 0 58 1;
#X connect 60 0 54 0;
#X connect 62 0 60 0;
#X connect 63 0 60 0;
#X connect 64 0 55 1;
#X connect 65 0 66 0;
#X connect 66 0 67 0;
#X connect 67 0 64 0;
#X connect 67 1 64 1;
#X connect 68 0 45 0;
#X connect 69 0 24 0;
#X connect 69 0 17 0;
#X connect 70 0 41 0;
#X connect 70 1 41 1;
#X connect 71 0 60 1;
#X connect 72 0 71 0;
#X connect 74 0 34 0;
#X connect 75 0 20 0;
