#N canvas 718 174 281 288 10;
#X obj 37 58 bng 15 250 50 0 empty empty + 20 7 0 10 -262144 -1 -1
;
#X obj 37 150 f;
#X obj 37 177 + 1;
#X obj 210 58 bng 15 250 50 0 empty empty – 20 7 0 10 -262144 -1
-1;
#X obj 210 194 f;
#X obj 210 221 - 1;
#X obj 52 96 loadbang;
#X floatatom 116 211 5 1 4 0 - - -, f 5;
#X msg 52 123 -1;
#X msg 225 167 3;
#X obj 116 235 outlet;
#X obj 37 21 inlet;
#X obj 210 21 inlet;
#X obj 116 106 moses 0;
#X obj 155 150 moses 4;
#X connect 0 0 1 0;
#X connect 1 0 2 0;
#X connect 2 0 1 1;
#X connect 2 0 4 0;
#X connect 3 0 4 0;
#X connect 4 0 5 0;
#X connect 4 0 7 0;
#X connect 5 0 4 1;
#X connect 6 0 8 0;
#X connect 7 0 10 0;
#X connect 7 0 13 0;
#X connect 8 0 1 1;
#X connect 8 0 1 0;
#X connect 9 0 4 1;
#X connect 9 0 4 0;
#X connect 11 0 0 0;
#X connect 12 0 3 0;
#X connect 13 0 8 0;
#X connect 13 1 1 1;
#X connect 13 1 14 0;
#X connect 14 1 9 0;
