#N canvas 242 56 1326 678 10;
#X obj 789 474 route;
#X obj 789 555 outlet;
#X text 938 16 note on;
#X obj 789 404 r \$1-position;
#X obj 789 434 t b f;
#X obj 392 510 s \$1-\$2;
#X obj 392 163 r \$2-p1;
#X obj 406 183 r \$2-p2;
#X obj 420 203 r \$2-p3;
#X obj 434 223 r \$2-p4;
#X obj 448 243 r \$2-p5;
#X obj 463 263 r \$2-p6;
#X obj 477 283 r \$2-p7;
#X obj 491 303 r \$2-p8;
#X obj 505 323 r \$2-p9;
#X obj 519 343 r \$2-p10;
#X obj 534 363 r \$2-p11;
#X obj 548 383 r \$2-p12;
#X obj 562 403 r \$2-p13;
#X obj 576 423 r \$2-p14;
#X obj 590 443 r \$2-p15;
#X obj 605 463 r \$2-p16;
#X obj 60 468 bng 15 250 50 0 \$1-\$2-plus empty + 5 7 0 10 -262144
-1 -1;
#X obj 84 468 bng 15 250 50 0 \$1-\$2-minus empty – 5 7 0 10 -262144
-1 -1;
#X obj 783 194 selection \$1 \$2 1;
#X obj 140 468 bng 15 250 50 0 \$1-\$2-plus2 empty + 5 7 0 10 -262144
-1 -1;
#X obj 164 468 bng 15 250 50 0 \$1-\$2-minus2 empty – 5 7 0 10 -262144
-1 -1;
#X obj 220 468 bng 15 250 50 0 \$1-\$2-plus3 empty + 5 7 0 10 -262144
-1 -1;
#X obj 244 468 bng 15 250 50 0 \$1-\$2-minus3 empty – 5 7 0 10 -262144
-1 -1;
#X obj 300 468 bng 15 250 50 0 \$1-\$2-plus4 empty + 5 7 0 10 -262144
-1 -1;
#X obj 324 468 bng 15 250 50 0 \$1-\$2-minus4 empty – 5 7 0 10 -262144
-1 -1;
#X text 74 491 1;
#X text 154 491 2;
#X text 234 491 3;
#X text 314 491 4;
#X obj 333 441 inlet;
#X obj 293 441 inlet;
#X obj 253 441 inlet;
#X obj 213 441 inlet;
#X obj 173 441 inlet;
#X obj 133 441 inlet;
#X obj 93 441 inlet;
#X obj 53 441 inlet;
#X text 924 148 selection+plocks;
#X text 445 511 writing the data as list;
#X obj 862 516 unpack f f f f;
#X floatatom 861 555 5 0 0 0 - - -, f 5;
#X floatatom 910 553 5 0 0 0 - - -, f 5;
#X floatatom 1012 563 5 0 0 0 - - -, f 5;
#X floatatom 958 558 5 0 0 0 - - -, f 5;
#X obj 792 49 noteon \$1 \$2 1;
#X floatatom 850 489 5 0 0 0 - - -, f 5;
#X obj 392 483 pack;
#X obj 696 434 r \$1-\$2-route;
#X obj 892 109 noteon \$1 \$2 14;
#X obj 1092 49 noteon \$1 \$2 4;
#X obj 892 49 noteon \$1 \$2 2;
#X obj 992 49 noteon \$1 \$2 3;
#X obj 792 69 noteon \$1 \$2 5;
#X obj 892 69 noteon \$1 \$2 6;
#X obj 992 69 noteon \$1 \$2 7;
#X obj 1092 69 noteon \$1 \$2 8;
#X obj 792 89 noteon \$1 \$2 9;
#X obj 892 89 noteon \$1 \$2 10;
#X obj 992 89 noteon \$1 \$2 11;
#X obj 1092 89 noteon \$1 \$2 12;
#X obj 792 109 noteon \$1 \$2 13;
#X obj 992 109 noteon \$1 \$2 15;
#X obj 1092 109 noteon \$1 \$2 16;
#X obj 903 194 selection \$1 \$2 2;
#X obj 1023 194 selection \$1 \$2 3;
#X obj 1143 194 selection \$1 \$2 4;
#X obj 783 214 selection \$1 \$2 5;
#X obj 903 214 selection \$1 \$2 6;
#X obj 1023 214 selection \$1 \$2 7;
#X obj 1143 214 selection \$1 \$2 8;
#X obj 783 234 selection \$1 \$2 9;
#X obj 903 234 selection \$1 \$2 10;
#X obj 1023 234 selection \$1 \$2 11;
#X obj 1143 234 selection \$1 \$2 12;
#X obj 783 254 selection \$1 \$2 13;
#X obj 903 254 selection \$1 \$2 14;
#X obj 1023 254 selection \$1 \$2 15;
#X obj 1143 254 selection \$1 \$2 16;
#X connect 0 0 1 0;
#X connect 0 0 45 0;
#X connect 0 1 51 0;
#X connect 3 0 4 0;
#X connect 4 0 0 0;
#X connect 4 1 0 1;
#X connect 22 0 52 0;
#X connect 23 0 52 0;
#X connect 25 0 52 0;
#X connect 26 0 52 0;
#X connect 27 0 52 0;
#X connect 28 0 52 0;
#X connect 29 0 52 0;
#X connect 30 0 52 0;
#X connect 35 0 30 0;
#X connect 36 0 29 0;
#X connect 37 0 28 0;
#X connect 38 0 27 0;
#X connect 39 0 26 0;
#X connect 40 0 25 0;
#X connect 41 0 23 0;
#X connect 42 0 22 0;
#X connect 45 0 46 0;
#X connect 45 1 47 0;
#X connect 45 2 49 0;
#X connect 45 3 48 0;
#X connect 52 0 5 0;
#X connect 53 0 0 0;
