#N canvas 0 22 329 267 10;
#X obj 25 58 bng 15 250 50 0 empty empty + 20 7 0 10 -262144 -1 -1
;
#X obj 25 150 f;
#X obj 25 177 + 1;
#X obj 198 58 bng 15 250 50 0 empty empty – 20 7 0 10 -262144 -1
-1;
#X obj 198 194 f;
#X obj 198 221 - 1;
#X obj 40 96 loadbang;
#X floatatom 104 211 5 1 4 0 - - -, f 5;
#X msg 40 123 -1;
#X obj 104 235 outlet;
#X obj 25 21 inlet;
#X obj 198 21 inlet;
#X obj 104 106 moses 0;
#X obj 143 130 moses 128;
#X msg 213 147 127;
#X msg 254 177 72;
#X obj 254 150 loadbang;
#X obj 162 163 inlet;
#X obj 262 124 inlet;
#X connect 0 0 1 0;
#X connect 1 0 2 0;
#X connect 2 0 1 1;
#X connect 2 0 4 0;
#X connect 3 0 4 0;
#X connect 4 0 5 0;
#X connect 4 0 7 0;
#X connect 5 0 4 1;
#X connect 6 0 8 0;
#X connect 7 0 9 0;
#X connect 7 0 12 0;
#X connect 8 0 1 1;
#X connect 8 0 1 0;
#X connect 10 0 0 0;
#X connect 11 0 3 0;
#X connect 12 0 8 0;
#X connect 12 1 1 1;
#X connect 12 1 13 0;
#X connect 13 1 14 0;
#X connect 14 0 4 1;
#X connect 14 0 4 0;
#X connect 15 0 4 1;
#X connect 15 0 4 0;
#X connect 16 0 15 0;
#X connect 17 0 4 1;
#X connect 17 0 4 0;
#X connect 18 0 15 0;
