#N canvas 637 125 450 300 10;
#X floatatom 82 92 5 0 127 0 - - -, f 5;
#X floatatom 82 224 5 0 3000 0 - - -, f 5;
#X obj 82 170 int;
#X obj 82 197 + 30;
#X obj 82 116 / 2;
#X obj 82 143 pow 1.657;
#X connect 0 0 4 0;
#X connect 2 0 3 0;
#X connect 3 0 1 0;
#X connect 4 0 5 0;
#X connect 5 0 2 0;
