#N canvas 2583 720 440 327 10;
#X obj 106 31 tgl 15 0 empty \$1-sel\$3 empty 17 7 0 10 -257985 -1
-1 0 1;
#X obj 31 86 spigot;
#X obj 73 112 bng 15 250 50 0 empty empty – 5 7 0 10 -262144 -1 -1
;
#X obj 31 112 bng 15 250 50 0 empty empty + 5 7 0 10 -262144 -1 -1
;
#X obj 94 112 bng 15 250 50 0 empty empty r 5 7 0 10 -262144 -1 -1
;
#X obj 31 132 plusmin0127;
#X obj 73 86 spigot;
#X obj 31 61 bng 15 250 50 0 empty \$1-\$2-plus + 5 7 0 10 -262144
-1 -1;
#X obj 73 61 bng 15 250 50 0 empty \$1-\$2-minus – 5 7 0 10 -262144
-1 -1;
#X obj 171 216 pack f f f f;
#X obj 121 86 spigot;
#X obj 163 112 bng 15 250 50 0 empty empty – 5 7 0 10 -262144 -1
-1;
#X obj 121 112 bng 15 250 50 0 empty empty + 5 7 0 10 -262144 -1 -1
;
#X obj 184 112 bng 15 250 50 0 empty empty r 5 7 0 10 -262144 -1 -1
;
#X obj 121 132 plusmin0127;
#X obj 163 86 spigot;
#X obj 121 61 bng 15 250 50 0 empty \$1-\$2-plus2 + 5 7 0 10 -262144
-1 -1;
#X obj 163 61 bng 15 250 50 0 empty \$1-\$2-minus2 – 5 7 0 10 -262144
-1 -1;
#X obj 211 86 spigot;
#X obj 253 112 bng 15 250 50 0 empty empty – 5 7 0 10 -262144 -1
-1;
#X obj 211 112 bng 15 250 50 0 empty empty + 5 7 0 10 -262144 -1 -1
;
#X obj 274 112 bng 15 250 50 0 empty empty r 5 7 0 10 -262144 -1 -1
;
#X obj 211 132 plusmin0127;
#X obj 253 86 spigot;
#X obj 211 61 bng 15 250 50 0 empty \$1-\$2-plus3 + 5 7 0 10 -262144
-1 -1;
#X obj 253 61 bng 15 250 50 0 empty \$1-\$2-minus3 – 5 7 0 10 -262144
-1 -1;
#X obj 301 86 spigot;
#X obj 343 112 bng 15 250 50 0 empty empty – 5 7 0 10 -262144 -1
-1;
#X obj 301 112 bng 15 250 50 0 empty empty + 5 7 0 10 -262144 -1 -1
;
#X obj 364 112 bng 15 250 50 0 empty empty r 5 7 0 10 -262144 -1 -1
;
#X obj 301 132 plusmin0127;
#X obj 343 86 spigot;
#X obj 301 61 bng 15 250 50 0 empty \$1-\$2-plus4 + 5 7 0 10 -262144
-1 -1;
#X obj 343 61 bng 15 250 50 0 empty \$1-\$2-minus4 – 5 7 0 10 -262144
-1 -1;
#X obj 196 31 tgl 15 0 empty \$1-sel\$3 empty 17 7 0 10 -257985 -1
-1 0 1;
#X obj 286 31 tgl 15 0 empty \$1-sel\$3 empty 17 7 0 10 -257985 -1
-1 0 1;
#X obj 376 31 tgl 15 0 empty \$1-sel\$3 empty 17 7 0 10 -257985 -1
-1 0 1;
#X obj 64 31 tgl 15 0 empty \$1-sel\$3 empty 17 7 0 10 -257985 -1 -1
0 1;
#X obj 154 31 tgl 15 0 empty \$1-sel\$3 empty 17 7 0 10 -257985 -1
-1 0 1;
#X obj 244 31 tgl 15 0 empty \$1-sel\$3 empty 17 7 0 10 -257985 -1
-1 0 1;
#X obj 334 31 tgl 15 0 empty \$1-sel\$3 empty 17 7 0 10 -257985 -1
-1 0 1;
#X obj 121 154 t b f;
#X obj 211 154 t b f;
#X obj 301 154 t b f;
#X obj 171 266 s \$1-\$2-p\$3;
#X connect 0 0 6 1;
#X connect 1 0 3 0;
#X connect 2 0 5 2;
#X connect 3 0 5 0;
#X connect 4 0 5 3;
#X connect 5 0 9 0;
#X connect 6 0 2 0;
#X connect 7 0 1 0;
#X connect 8 0 6 0;
#X connect 9 0 44 0;
#X connect 10 0 12 0;
#X connect 11 0 14 2;
#X connect 12 0 14 0;
#X connect 13 0 14 3;
#X connect 14 0 41 0;
#X connect 15 0 11 0;
#X connect 16 0 10 0;
#X connect 17 0 15 0;
#X connect 18 0 20 0;
#X connect 19 0 22 2;
#X connect 20 0 22 0;
#X connect 21 0 22 3;
#X connect 22 0 42 0;
#X connect 23 0 19 0;
#X connect 24 0 18 0;
#X connect 25 0 23 0;
#X connect 26 0 28 0;
#X connect 27 0 30 2;
#X connect 28 0 30 0;
#X connect 29 0 30 3;
#X connect 30 0 43 0;
#X connect 31 0 27 0;
#X connect 32 0 26 0;
#X connect 33 0 31 0;
#X connect 34 0 15 1;
#X connect 35 0 23 1;
#X connect 36 0 31 1;
#X connect 37 0 1 1;
#X connect 38 0 10 1;
#X connect 39 0 18 1;
#X connect 40 0 26 1;
#X connect 41 0 9 0;
#X connect 41 1 9 1;
#X connect 42 0 9 0;
#X connect 42 1 9 2;
#X connect 43 0 9 0;
#X connect 43 1 9 3;
